<?xml version="1.0" standalone="no"?>
<!DOCTYPE svg PUBLIC "-//W3C//DTD SVG 20010904//EN"
 "http://www.w3.org/TR/2001/REC-SVG-20010904/DTD/svg10.dtd">
<svg version="1.0" xmlns="http://www.w3.org/2000/svg"
 width="512.000000pt" height="512.000000pt" viewBox="0 0 512.000000 512.000000"
 preserveAspectRatio="xMidYMid meet">
<metadata>
Created by potrace 1.14, written by Peter Selinger 2001-2017
</metadata>
<g transform="translate(0.000000,512.000000) scale(0.100000,-0.100000)"
fill="#000000" stroke="none">
<path d="M300 4130 c-91 -16 -192 -85 -244 -168 -59 -94 -57 -31 -54 -1423 l3
-1274 27 -57 c51 -110 164 -198 273 -214 65 -9 4399 -11 4487 -2 126 13 240
96 296 216 l27 57 0 1295 0 1295 -31 65 c-39 82 -101 144 -184 184 l-65 31
-2250 0 c-1237 1 -2266 -2 -2285 -5z m1173 -1036 c133 -167 245 -303 249 -304
4 0 28 28 54 63 27 34 51 64 54 67 3 3 68 84 145 180 77 96 142 177 146 180 3
3 24 30 48 62 l42 56 247 -1 247 -2 1 -832 c0 -584 -3 -833 -10 -834 -6 -1
-115 -2 -243 -3 -199 -1 -232 1 -235 14 -2 8 -4 221 -3 473 0 251 -2 457 -5
457 -5 0 -422 -516 -475 -587 -8 -11 -63 52 -240 273 -126 158 -238 297 -247
308 -16 20 -17 4 -17 -334 0 -195 0 -411 -1 -480 l0 -125 -245 0 -245 0 0 32
c-1 18 -1 373 -1 788 0 415 0 777 1 804 l0 50 246 -1 245 0 242 -304z m2562
-113 l0 -419 225 0 c289 -1 263 1 251 -19 -5 -10 -22 -31 -38 -48 -16 -16 -53
-59 -83 -95 -30 -36 -57 -67 -60 -70 -3 -3 -43 -50 -90 -105 -47 -55 -87 -102
-90 -105 -3 -3 -57 -66 -120 -140 -63 -74 -117 -137 -120 -140 -3 -3 -31 -35
-63 -72 l-59 -68 -60 73 c-33 39 -72 86 -86 102 -15 17 -110 127 -211 245
-101 118 -226 264 -278 324 -52 59 -92 110 -89 113 3 3 111 5 240 5 168 0 236
3 238 12 2 6 4 194 3 418 l0 406 245 1 245 0 0 -418z"/>
</g>
</svg>
