<?xml version="1.0" standalone="no"?>
<!DOCTYPE svg PUBLIC "-//W3C//DTD SVG 20010904//EN"
 "http://www.w3.org/TR/2001/REC-SVG-20010904/DTD/svg10.dtd">
<svg version="1.0" xmlns="http://www.w3.org/2000/svg"
 width="512.000000pt" height="512.000000pt" viewBox="0 0 512.000000 512.000000"
 preserveAspectRatio="xMidYMid meet">
<metadata>
Created by potrace 1.14, written by Peter Selinger 2001-2017
</metadata>
<g transform="translate(0.000000,512.000000) scale(0.100000,-0.100000)"
fill="#000000" stroke="none">
<path d="M356 4149 c-106 -25 -231 -114 -289 -206 -14 -22 -35 -70 -46 -107
-21 -67 -21 -80 -21 -1274 0 -1064 2 -1214 16 -1267 9 -33 22 -67 29 -75 8 -8
14 -18 14 -23 2 -35 119 -150 187 -183 117 -57 -24 -54 2324 -53 2065 0 2168
1 2222 18 163 52 288 190 318 350 7 35 10 483 10 1250 l-1 1196 -25 75 c-14
41 -30 77 -35 78 -5 2 -9 9 -9 16 0 7 -27 41 -61 74 -64 65 -148 113 -231 131
-60 14 -4345 13 -4402 0z m4386 -332 c61 -42 58 28 58 -1257 0 -1283 3 -1210
-58 -1255 -27 -20 -45 -20 -2165 -23 -2073 -2 -2140 -2 -2181 17 -82 36 -76
-61 -76 1261 0 1307 -5 1221 69 1260 35 19 87 19 2181 17 2051 -2 2146 -3
2172 -20z"/>
<path d="M800 2560 l0 -800 240 0 240 0 0 531 0 531 23 -29 c13 -15 119 -155
237 -310 117 -156 216 -283 220 -283 4 0 34 35 66 78 33 42 63 82 67 87 22 28
277 367 307 409 l35 48 3 -531 2 -531 240 0 240 0 0 800 0 800 -240 0 -240 0
-236 -315 c-130 -173 -240 -315 -244 -315 -4 0 -114 142 -244 315 l-236 315
-240 0 -240 0 0 -800z"/>
<path d="M3520 2960 l0 -400 -241 0 -241 0 40 -42 c32 -35 500 -555 639 -710
32 -36 58 -48 65 -29 3 8 31 40 194 221 22 25 58 65 80 89 21 24 50 56 64 71
14 15 57 63 95 105 88 99 158 176 212 234 24 25 43 49 43 54 0 4 -106 7 -235
7 l-235 0 0 400 0 400 -240 0 -240 0 0 -400z"/>
</g>
</svg>
