<?xml version="1.0" standalone="no"?>
<!DOCTYPE svg PUBLIC "-//W3C//DTD SVG 20010904//EN"
 "http://www.w3.org/TR/2001/REC-SVG-20010904/DTD/svg10.dtd">
<svg version="1.0" xmlns="http://www.w3.org/2000/svg"
 width="512.000000pt" height="512.000000pt" viewBox="0 0 512.000000 512.000000"
 preserveAspectRatio="xMidYMid meet">
<metadata>
Created by potrace 1.14, written by Peter Selinger 2001-2017
</metadata>
<g transform="translate(0.000000,512.000000) scale(0.100000,-0.100000)"
fill="#000000" stroke="none">
<path d="M2320 5009 c-120 -12 -288 -45 -405 -78 -55 -16 -115 -31 -132 -35
-69 -12 -347 -143 -475 -223 -21 -13 -44 -23 -51 -23 -7 0 -22 -8 -33 -18 -10
-9 -55 -43 -100 -75 -199 -142 -419 -362 -561 -561 -32 -45 -66 -90 -75 -100
-10 -11 -18 -24 -18 -29 0 -6 -31 -65 -69 -131 -77 -136 -166 -341 -181 -413
-5 -26 -19 -77 -30 -113 -118 -380 -118 -927 1 -1309 11 -36 24 -87 29 -113 5
-27 18 -67 29 -90 10 -24 33 -76 50 -116 17 -41 55 -117 85 -170 30 -54 64
-117 77 -142 24 -46 160 -235 220 -305 93 -110 301 -303 421 -392 140 -105
385 -244 542 -308 94 -39 330 -107 456 -132 285 -56 610 -57 895 -4 143 27
377 93 481 136 157 64 402 203 542 308 112 83 294 252 418 387 36 39 214 282
214 292 0 4 30 61 67 126 36 64 84 158 105 207 22 50 46 104 54 122 8 17 18
53 24 80 5 26 18 78 29 114 77 246 109 603 81 890 -12 121 -51 326 -80 419
-11 36 -25 87 -30 113 -12 59 -110 293 -155 367 -18 30 -51 90 -74 132 -22 43
-47 85 -55 95 -8 10 -41 54 -74 98 -146 199 -352 403 -546 542 -45 32 -90 66
-100 75 -11 10 -26 18 -33 18 -7 0 -30 10 -51 23 -128 80 -406 211 -475 223
-17 4 -77 19 -132 35 -271 77 -603 106 -885 78z m1894 -1739 c158 -40 256
-119 324 -261 22 -46 45 -111 51 -143 19 -103 27 -96 -108 -96 l-118 0 -13 62
c-32 164 -127 248 -282 248 -108 0 -143 -14 -219 -90 -49 -48 -71 -80 -87
-122 -32 -86 -45 -214 -39 -373 8 -197 32 -275 111 -362 68 -75 120 -97 226
-96 88 1 148 19 196 60 38 32 74 102 90 173 l16 70 119 0 c92 0 119 -3 119
-13 0 -47 -27 -144 -60 -215 -90 -191 -270 -290 -509 -279 -125 5 -181 21
-278 80 -111 66 -205 202 -248 362 -26 92 -32 384 -11 505 20 116 74 236 148
326 51 63 74 80 173 129 118 57 262 70 399 35z m-3297 -97 c22 -54 49 -125 61
-158 11 -33 48 -125 82 -205 64 -152 119 -290 190 -477 24 -62 46 -113 50
-113 8 0 123 282 163 400 9 25 43 110 77 190 88 210 156 379 170 423 l12 37
144 0 144 0 0 -710 0 -710 -121 0 -122 0 5 474 5 474 -35 -76 c-18 -43 -38
-93 -43 -113 -7 -31 -118 -301 -178 -434 -10 -22 -31 -74 -46 -115 -15 -41
-40 -105 -54 -142 l-26 -68 -92 0 c-86 0 -92 1 -99 23 -3 12 -15 40 -25 62
-60 134 -174 411 -254 620 -21 55 -53 131 -70 169 l-31 69 4 -472 5 -471 -122
0 -121 0 0 710 0 710 143 0 144 0 40 -97z m1912 82 c39 -8 98 -28 131 -45 33
-16 66 -30 74 -30 31 0 125 -102 180 -194 70 -118 95 -208 103 -371 10 -218
-20 -354 -114 -502 -67 -108 -94 -132 -208 -188 -139 -68 -181 -75 -472 -75
l-253 0 0 710 0 710 244 0 c178 0 264 -4 315 -15z"/>
<path d="M2510 2556 l0 -506 98 0 c116 0 219 20 276 54 60 35 132 120 156 182
58 156 53 428 -10 571 -28 63 -111 146 -174 175 -44 19 -72 23 -198 26 l-148
4 0 -506z"/>
</g>
</svg>
